OpenSim_Sub11_CSPreOp_LCS.mot
version=1
nRows=60
nColumns=11
inDegrees=no
endheader
time	Bot_Shank	2nd_Bot_Shank	2nd_Top_Shank	Top_Shank	Bot_Thigh	Med_Thigh	Top_Thigh	BNOx	BNOy	BNOZ
18.50000000	8938.98872401	9397.70078274	9677.70704338	9158.53445905	10138.60652755	11215.67190780	11267.41215885	166.91077343	-84.93956098	-13.94394571
18.51000000	8933.41672868	9389.24845532	9660.71059882	9157.64217115	10151.90898013	11219.02120027	11276.56023206	166.01485118	-83.72281988	-22.54500830
18.52000000	8926.75234040	9380.74294293	9643.23231915	9156.85063241	10163.87598142	11222.25283527	11286.55589642	165.08568554	-82.41767830	-29.16899748
18.53000000	8918.87507738	9371.29351597	9625.98155743	9155.85179170	10174.03110366	11225.24263325	11296.83630829	164.16340367	-81.07095117	-34.14206080
18.54000000	8909.66445784	9360.00944486	9609.66766670	9154.33759794	10181.89791911	11227.86641468	11306.83862403	163.28813277	-79.72945343	-37.79034579
18.55000000	8899	9346	9595	9152	10187	11230	11316	162.50000000	-78.44000000	-40.44000000
18.56000000	8886.90200504	9328.74798081	9582.57084733	9148.68185889	10189.09447777	11231.55393980	11323.90313621	161.82707882	-77.23947605	-42.37747767
18.57000000	8873.95390594	9309.23030272	9572.50424645	9144.82968401	10188.87272058	11232.57770519	11330.71290732	161.24922775	-76.12504767	-43.73045990
18.58000000	8860.87991865	9288.79741015	9564.80717207	9141.04089689	10187.25965577	11233.15549740	11336.73973163	160.73425159	-75.08395118	-44.58693449
18.59000000	8848.40425910	9268.79974752	9559.48659889	9137.91291904	10185.18021070	11233.37151768	11342.29402745	160.24995514	-74.10342289	-45.03488925
18.60000000	8837.25114322	9250.58775925	9556.54950164	9136.04317198	10183.55931269	11233.30996724	11347.68621309	159.76414320	-73.17069913	-45.16231198
18.61000000	8828.14478697	9235.51188978	9556.00285501	9136.02907722	10183.32188911	11233.05504734	11353.22670687	159.24462057	-72.27301621	-45.05719050
18.62000000	8821.80940627	9224.92258352	9557.85363373	9138.46805627	10185.39286730	11232.69095921	11359.22592708	158.65919205	-71.39761046	-44.80751260
18.63000000	8818.96921707	9220.17028491	9562.10881248	9143.95753066	10190.69717459	11232.30190408	11365.99429204	157.97566243	-70.53171819	-44.50126609
18.64000000	8820.34811685	9222.60489258	9568.77527506	9153.09469452	10200.15935131	11231.97206532	11373.84209690	157.16184877	-69.66258155	-44.22642148
18.65000000	8826.24740602	9232.85206687	9577.73923831	9166.17500895	10214.19034723	11231.76191678	11382.91620237	156.20183585	-68.78517151	-44.04798660
18.66000000	8835.71269532	9249.38549242	9588.52837367	9182.59737644	10231.67504766	11231.66148269	11392.87784596	155.12804577	-67.91742420	-43.96273886
18.67000000	8847.55743778	9270.28098667	9600.60406309	9201.59493957	10251.21619210	11231.64776221	11403.29848094	153.98183744	-67.08152167	-43.95484091
18.68000000	8860.59508643	9293.61436710	9613.42768850	9222.40084090	10271.41652006	11231.69775453	11413.74956057	152.80456978	-66.29964594	-44.00845539
18.69000000	8873.63909433	9317.46145115	9626.46063184	9244.24822303	10290.87877103	11231.78845882	11423.80253812	151.63760171	-65.59397906	-44.10774497
18.70000000	8885.50291451	9339.89805630	9639.16427502	9266.37022854	10308.20568451	11231.89687425	11433.02886684	150.52229214	-64.98670307	-44.23687229
18.71000000	8895	9359	9651	9288	10322	11232	11441	149.50000000	-64.50000000	-44.38000000
18.72000000	8901.22426218	9373.26438858	9661.50177621	9308.44491976	10331.17534876	11232.07920197	11447.37515158	148.60715719	-64.15462091	-44.51675376
18.73000000	8904.39144573	9382.87348385	9670.49392309	9327.30932918	10335.88892910	11232.13331297	11452.16457846	147.86048752	-63.96559291	-44.60861123
18.74000000	8904.99775367	9388.43083651	9677.87334762	9344.27180941	10336.60883110	11232.16553256	11455.46629822	147.27178781	-63.94651210	-44.61251309
18.75000000	8903.53938902	9390.53999724	9683.53695675	9359.01094158	10333.80314484	11232.17906026	11457.37832846	146.85285486	-64.11097462	-44.48540003
18.76000000	8900.51255481	9389.80451672	9687.38165743	9371.20530683	10327.93996040	11232.17709564	11457.99868676	146.61548547	-64.47257658	-44.18421270
18.77000000	8896.41345404	9386.82794564	9689.30435663	9380.53348629	10319.48736785	11232.16283822	11457.42539073	146.57147645	-65.04491409	-43.66589180
18.78000000	8891.73828975	9382.21383468	9689.20196130	9386.67406108	10308.91345726	11232.13948755	11455.75645795	146.73262461	-65.84158327	-42.88737799
18.79000000	8886.98326493	9376.56573454	9686.97137840	9389.30561236	10296.68631872	11232.11024318	11453.08990601	147.11072674	-66.87618025	-41.80561194
18.80000000	8882.64458263	9370.48719589	9682.50951490	9388.10672126	10283.27404231	11232.07830464	11449.52375251	147.71757966	-68.16230115	-40.37753434
18.81000000	8879.21844585	9364.58176943	9675.71327774	9382.75596890	10269.14471809	11232.04687149	11445.15601504	148.56498017	-69.71354207	-38.56008586
18.82000000	8877.20105761	9359.45300584	9666.47957389	9372.93193642	10254.76643615	11232.01914327	11440.08471118	149.66472507	-71.54349914	-36.31020718
18.83000000	8877.08843669	9355.70424731	9654.70550475	9358.31351405	10240.60735314	11231.99831864	11434.40785464	151.02860240	-73.66573294	-33.58479285
18.84000000	8879.13210358	9353.66217204	9640.54621108	9338.98974521	10227.22397521	11231.98644439	11428.21828397	152.65676155	-76.04664673	-30.27955704
18.85000000	8882.85708541	9352.83138870	9624.92356236	9316.26838789	10215.43532699	11231.98214451	11421.59346055	154.51476923	-78.51252223	-26.10842455
18.86000000	8887.65409187	9352.56451800	9608.90118445	9291.68252159	10206.10896875	11231.98341023	11414.60800272	156.56179838	-80.86373484	-20.75171014
18.87000000	8892.91383266	9352.21418063	9593.54270318	9266.76522583	10200.11246074	11231.98823274	11407.33652886	158.75702192	-82.90065993	-13.88972859
18.88000000	8898.02701747	9351.13299730	9579.91174440	9243.04958012	10198.31336323	11231.99460326	11399.85365732	161.05961276	-84.42367291	-5.20279466
18.89000000	8902.38448969	9348.67379242	9569.07166648	9222.06831571	10201.57886326	11232.00051338	11392.23403013	163.42874495	-85.23320971	5.62860195
18.90000000	8905.55449892	9344.45974256	9561.73087320	9204.89201097	10210.28089270	11232.00447836	11384.58368405	165.82504987	-85.21003932	18.69185000
18.91000000	8907.63243330	9338.91733885	9557.54306914	9191.21801981	10223.31979998	11232.00656942	11377.10194113	168.21348940	-84.47362948	33.38462059
18.92000000	8908.81114075	9332.62159291	9555.96696122	9180.48980808	10239.32386039	11232.00714544	11370.00537039	170.55982600	-83.18757968	48.97706663
18.93000000	8909.28346916	9326.14751637	9556.46125637	9172.15084164	10256.92134925	11232.00656532	11363.51054086	172.82982217	-81.51548940	64.73934104
18.94000000	8909.24226647	9320.07012086	9558.48466152	9165.64458636	10274.74054186	11232.00518795	11357.83402158	174.98924038	-79.62095810	79.94159675
18.95000000	8908.88038058	9314.96441801	9561.49588359	9160.41450809	10291.40971353	11232.00337221	11353.19238158	177.00384311	-77.66758527	93.85398668
18.96000000	8908.39065941	9311.40541944	9564.95362951	9155.90407268	10305.55713956	11232.00147701	11349.80218990	178.83939285	-75.81897039	105.74666375
18.97000000	8907.96592444	9309.96796018	9568.31672690	9151.55693066	10315.81148839	11231.99986115	11347.87994907	180.46165672	-74.23867903	114.88999240
18.98000000	8907.76391330	9310.99252565	9571.20417609	9147.06177174	10321.32312135	11231.99878342	11347.55391936	181.84256250	-73.04530746	120.83502583
18.99000000	8907.83811671	9314.12326330	9573.71090868	9142.83538636	10322.79253922	11231.99820537	11348.69016119	182.97234347	-72.22383166	123.96684572
19	8908.22275178	9318.87557839	9576.01984869	9139.42917954	10321.20683967	11231.99803360	11351.10625821	183.84461735	-71.73452326	124.82473278
19.01000000	8908.95203558	9324.76487620	9578.31392011	9137.39455631	10317.55312041	11231.99817472	11354.61979411	184.45300183	-71.53765391	123.94796770
19.02000000	8910.06018522	9331.30656199	9580.77604695	9137.28292171	10312.81847913	11231.99853531	11359.04835256	184.79111464	-71.59349526	121.87583118
19.03000000	8911.58141777	9338.01604104	9583.58915321	9139.64568077	10307.99001350	11231.99902199	11364.20951724	184.85257346	-71.86231897	119.14760392
19.04000000	8913.54995033	9344.40871862	9586.93616290	9145.03423853	10304.05482123	11231.99954135	11369.92087183	184.63099601	-72.30439666	116.30256663
19.05000000	8916	9350	9591	9154	10302	11232	11376	184.12000000	-72.88000000	113.88000000
19.06000000	8918.93671068	9354.41750884	9595.91106425	9166.84237268	10302.51255898	11232.00032374	11382.26433257	183.32598353	-73.55193100	112.30534728
19.07000000	8922.24893359	9357.73774237	9601.58965827	9182.85277385	10305.07915321	11232.00051523	11388.53068889	182.30646635	-74.29311319	111.54870190
19.08000000	8925.79644675	9360.14941622	9607.90356039	9201.07062324	10308.88634921	11232.00059633	11394.61573548	181.13174861	-75.07900048	111.46631984
19.09000000	8929.43902821	9361.84124600	9614.72054896	9220.53534058	10313.12071350	11232.00058891	11400.33613883	179.87213046	-75.88504676	111.91445706
